<svg width="32" height="32" viewBox="0 0 32 32" fill="none" xmlns="http://www.w3.org/2000/svg">
<path fill-rule="evenodd" clip-rule="evenodd" d="M12.6927 19.6663C14.0779 20.8593 15.4983 22.7227 15.4983 25.333L13.4983 25.333C13.4983 23.4218 12.4144 22.0116 11.2011 21.0258C10.6 20.5375 9.99398 20.177 9.5364 19.9387C9.3088 19.8201 9.12108 19.7334 8.99334 19.6776C8.92956 19.6496 8.88099 19.6295 8.85017 19.6171L8.81767 19.6042L8.81387 19.6027L8.81206 19.602L6.66667 18.7975L8.71665 17.7725L8.72449 17.7685L8.76006 17.75C8.79297 17.7327 8.84375 17.7056 8.90985 17.6691C9.04218 17.5958 9.2351 17.4849 9.46833 17.3392C9.93687 17.0463 10.5574 16.6192 11.1732 16.0804C12.4467 14.966 13.4983 13.5532 13.4983 11.9997L15.4983 11.9997C15.4983 14.4461 13.8833 16.3666 12.4902 17.5856C12.4591 17.6128 12.4281 17.6397 12.397 17.6663L27.8317 17.6663L27.8317 19.6663L12.6927 19.6663Z" fill="#41515C"/>
</svg>
