<svg width="24" height="24" viewBox="0 0 24 24" fill="none" xmlns="http://www.w3.org/2000/svg">
<path d="M13.94 16.26H7.44V17.76H13.94V16.26Z" fill="black"/>
<path d="M16.94 12.26H7.44V13.76H16.94V12.26Z" fill="black"/>
<path d="M16.94 8.26001H7.44V9.76001H16.94V8.26001Z" fill="black"/>
<path d="M19.19 4.26002H14.84L14.77 4.09002C14.6491 3.75127 14.4623 3.43985 14.2202 3.1738C13.9782 2.90774 13.6858 2.69233 13.36 2.54002C12.6964 2.23148 11.9375 2.1991 11.25 2.45002C10.8727 2.58561 10.53 2.80294 10.2464 3.08646C9.96292 3.36998 9.74559 3.71268 9.61 4.09002L9.54 4.26002H4.82C4.54172 4.32371 4.28324 4.4545 4.0671 4.64101C3.85096 4.82751 3.68374 5.06406 3.58 5.33002C3.48965 5.54546 3.4421 5.77642 3.44 6.01002V20.02C3.44064 20.2508 3.48691 20.4791 3.57616 20.692C3.6654 20.9048 3.79585 21.0978 3.96 21.26C4.19458 21.5046 4.49802 21.672 4.83 21.74C4.9499 21.7471 5.07011 21.7471 5.19 21.74H5.44L6.25 20.24H4.94V5.76002H11.19V4.51002C11.19 4.24481 11.2954 3.99045 11.4829 3.80292C11.6704 3.61538 11.9248 3.51002 12.19 3.51002V3.51002C12.4552 3.51002 12.7096 3.61538 12.8971 3.80292C13.0846 3.99045 13.19 4.24481 13.19 4.51002V5.76002H19.44V20.26H8.06L7.25 21.76H19.19C19.6516 21.7574 20.0937 21.5736 20.4211 21.2481C20.7484 20.9226 20.9348 20.4816 20.94 20.02V6.02002C20.9413 5.78937 20.897 5.56073 20.8097 5.34725C20.7223 5.13378 20.5936 4.93968 20.431 4.77611C20.2684 4.61255 20.075 4.48275 19.862 4.39418C19.649 4.30561 19.4207 4.26002 19.19 4.26002Z" fill="black"/>
</svg>
