<svg width="32" height="32" viewBox="0 0 32 32" fill="none" xmlns="http://www.w3.org/2000/svg">
<path d="M7.47625 22H5V8H20.5V13M7.47625 22C7.47625 23.2426 8.48361 24.25 9.72625 24.25C10.9689 24.25 11.9763 23.2426 11.9763 22M7.47625 22C7.47625 20.7574 8.48361 19.75 9.72625 19.75C10.9689 19.75 11.9763 20.7574 11.9763 22M20.5 22H11.9763M20.5 22V13M20.5 22C20.5 23.2426 21.5074 24.25 22.75 24.25C23.9926 24.25 25 23.2426 25 22M20.5 22C20.5 20.7574 21.5074 19.75 22.75 19.75C23.9926 19.75 25 20.7574 25 22M20.5 13H23.5L27.5 17V22H25" stroke="black" stroke-width="1.5"/>
<path d="M22.9707 14.875V17.375H25.4707L22.9707 14.875Z" fill="black"/>
</svg>
