<svg width="18" height="18" viewBox="0 0 18 18" fill="none" xmlns="http://www.w3.org/2000/svg">
<circle cx="9" cy="9" r="9" fill="white"/>
<circle cx="9" cy="9" r="8.5" stroke="black" stroke-opacity="0.2"/>
<path d="M9.88609 13H8.11382V7.76596H9.88609V13ZM8.28725 6.76292C8.09575 6.5846 8 6.33333 8 6.00912C8 5.6849 8.09575 5.43566 8.28725 5.2614C8.47875 5.08713 8.71541 5 8.99724 5C9.27907 5 9.51754 5.08713 9.71265 5.2614C9.90777 5.43566 10.0035 5.6849 9.9999 6.00912C9.9999 6.33333 9.90415 6.5846 9.71265 6.76292C9.51754 6.94124 9.27907 7.0304 8.99724 7.0304C8.71541 7.0304 8.47875 6.94124 8.28725 6.76292Z" fill="#989CA4"/>
</svg>
