<svg width="71" height="12" viewBox="0 0 71 12" fill="none" xmlns="http://www.w3.org/2000/svg">
<path d="M32.8933 1.09559C32.2069 1.09559 31.6523 1.26855 31.2295 1.61449C30.8067 1.95493 30.5953 2.39696 30.5953 2.94056C30.5953 3.47868 30.793 3.896 31.1883 4.19251C31.5837 4.48903 32.3936 4.84045 33.6181 5.24678C34.8426 5.65312 35.7019 6.07593 36.1961 6.51521C36.6958 6.94899 36.9457 7.59144 36.9457 8.44255C36.9457 9.29365 36.6354 9.93884 36.0149 10.3781C35.3944 10.8119 34.6449 11.0288 33.7664 11.0288C31.9873 11.0288 30.5047 10.4962 29.3187 9.43093L29.6893 8.85437C30.815 9.84275 32.13 10.3369 33.6346 10.3369C35.3203 10.3369 36.1632 9.69175 36.1632 8.40136C36.1632 7.7699 35.9573 7.28944 35.5454 6.95998C35.1391 6.62503 34.461 6.30106 33.511 5.98807C32.5666 5.67508 31.9324 5.4527 31.6084 5.32091C31.2844 5.18364 30.9632 5.00243 30.6447 4.7773C30.3317 4.55217 30.1148 4.2941 29.994 4.00307C29.8787 3.70656 29.8211 3.33866 29.8211 2.89938C29.8211 2.16908 30.1011 1.5733 30.6612 1.11206C31.2268 0.650817 31.9708 0.420195 32.8933 0.420195C34.2166 0.425686 35.4301 0.708472 36.5338 1.26855L36.2867 1.86982C35.2544 1.35366 34.1233 1.09559 32.8933 1.09559Z" fill="black"/>
<path d="M45.0668 10.8806H38.8318V10.2216H41.8299V1.53212C40.8964 1.94944 39.93 2.27066 38.9306 2.49579L38.7577 1.99337C39.9932 1.61998 41.0749 1.15324 42.0029 0.593161H42.5712V10.2216H45.0668V10.8806Z" fill="black"/>
<path d="M21.3693 5.15662L24.2495 10.4285H26.7944L21.3742 0.525622L15.9294 10.4285L18.4299 10.4234L21.3693 5.15662Z" fill="black"/>
<path d="M5.21705 0.337839C2.34051 0.332471 9.0491e-06 2.68902 9.0491e-06 5.60383C-0.00529822 8.51328 2.32459 10.8806 5.20644 10.8806C8.08298 10.8859 10.4235 8.52939 10.4235 5.61457C10.4235 2.70512 8.0936 0.343207 5.21705 0.337839ZM5.20644 8.42203C3.67264 8.42203 2.43074 7.16055 2.43074 5.6092C2.43605 4.05785 3.67795 2.80175 5.21175 2.80175C6.74555 2.80175 7.98745 4.06322 7.98745 5.61457C7.98745 7.16592 6.74024 8.42203 5.20644 8.42203Z" fill="black"/>
<path d="M13.5241 8.12931L13.534 0.614576H11.2604L11.2885 7.73522L11.2511 10.4273H14.9692L16.2712 8.12931H13.5241Z" fill="black"/>
<path d="M58.7105 7.17815L56.4636 2.12686C56.2406 1.60086 56.0805 1.19493 55.9833 0.909061C55.9376 1.04056 55.7861 1.44649 55.5288 2.12686L53.2647 7.17815H58.7105ZM52.9646 7.92427L51.5753 11.0288H50.7177L55.4945 0.317314H56.4979L61.2748 11.0288H60.4086L59.0278 7.92427H52.9646Z" fill="black"/>
<path d="M63.6075 11.0288H62.8356V2.88155H63.6075V11.0288ZM62.6984 0.488835C62.6984 0.162945 62.8728 0 63.2215 0C63.5703 0 63.7475 0.162945 63.7532 0.488835C63.759 0.643204 63.7104 0.766127 63.6075 0.857605C63.5045 0.949083 63.3759 0.994822 63.2215 0.994822C63.0672 0.994822 62.9414 0.949083 62.8442 0.857605C62.747 0.766127 62.6984 0.643204 62.6984 0.488835Z" fill="black"/>
<path d="M67.3123 2.88155V4.7254C67.4895 4.14223 67.8269 3.66197 68.3243 3.28463C68.8217 2.90728 69.3134 2.71861 69.7994 2.71861C70.2853 2.71861 70.6856 2.73576 71 2.77006L70.9314 3.5076C70.6512 3.48473 70.3168 3.4733 69.928 3.4733C69.3334 3.4733 68.8074 3.67913 68.35 4.09078C67.8926 4.50243 67.5467 5.09417 67.3123 5.86602V11.0288H66.5405V2.88155H67.3123Z" fill="black"/>
</svg>
