<svg width="74" height="11" viewBox="0 0 74 11" fill="none" xmlns="http://www.w3.org/2000/svg">
<path d="M33.259 0.766183C32.565 0.766183 32.0043 0.941073 31.5768 1.29085C31.1492 1.63508 30.9355 2.08202 30.9355 2.63167C30.9355 3.17577 31.1354 3.59773 31.5351 3.89754C31.9349 4.19735 32.7538 4.55268 33.9919 4.96354C35.23 5.37439 36.0989 5.8019 36.5986 6.24606C37.1038 6.68467 37.3564 7.33426 37.3564 8.19483C37.3564 9.0554 37.0428 9.70777 36.4154 10.1519C35.788 10.5905 35.0301 10.8098 34.1418 10.8098C32.3429 10.8098 30.8439 10.2713 29.6446 9.1942L30.0194 8.61124C31.1576 9.61061 32.4873 10.1103 34.0086 10.1103C35.713 10.1103 36.5653 9.45792 36.5653 8.15319C36.5653 7.5147 36.3571 7.0289 35.9407 6.69578C35.5298 6.3571 34.8441 6.02953 33.8836 5.71306C32.9287 5.3966 32.2874 5.17174 31.9598 5.03849C31.6323 4.89969 31.3075 4.71647 30.9855 4.48884C30.669 4.2612 30.4497 4.00025 30.3275 3.706C30.2109 3.40618 30.1527 3.0342 30.1527 2.59003C30.1527 1.85161 30.4358 1.24921 31.0021 0.78284C31.574 0.316467 32.3263 0.0832808 33.259 0.0832808C34.5971 0.0888329 35.8241 0.374764 36.94 0.941073L36.6902 1.54902C35.6464 1.02713 34.5027 0.766183 33.259 0.766183Z" fill="black"/>
<path d="M45.5679 10.6599H39.2636V9.9937H42.295V1.20757C41.3511 1.62953 40.374 1.95432 39.3635 2.18196L39.1886 1.67394C40.4378 1.2964 41.5316 0.82448 42.4699 0.25817H43.0445V9.9937H45.5679V10.6599Z" fill="black"/>
<path d="M55.3618 6.44593C57.577 6.44593 58.6736 5.5354 58.6513 3.71432C58.6513 1.88215 57.5493 0.968833 55.3451 0.974385H52.8883V6.44593H55.3618ZM52.1221 0.25817H55.3451C58.049 0.263723 59.4009 1.41577 59.4009 3.71432C59.4009 6.01287 58.0601 7.16215 55.3784 7.16215H52.8883V10.6599H52.1221V0.25817Z" fill="black"/>
<path d="M62.1242 2.74827V4.5388C62.2963 3.97249 62.6238 3.50612 63.1069 3.13969C63.5899 2.77325 64.0674 2.59003 64.5393 2.59003C65.0112 2.59003 65.3999 2.60669 65.7052 2.64L65.6386 3.35622C65.3666 3.33401 65.0418 3.3229 64.6642 3.3229C64.0868 3.3229 63.576 3.52278 63.1319 3.92253C62.6877 4.32227 62.3518 4.89691 62.1242 5.64644V10.6599H61.3746V2.74827H62.1242Z" fill="black"/>
<path d="M70.1108 10.1686C71.0991 10.1686 71.8736 9.86878 72.4343 9.26915C72.9895 8.67508 73.2671 7.83395 73.2671 6.74575C73.2671 5.65754 72.9895 4.80253 72.4343 4.1807C71.8791 3.55887 71.1074 3.24518 70.1191 3.23962C69.1309 3.23962 68.3619 3.55331 67.8122 4.1807C67.2515 4.80253 66.9711 5.65754 66.9711 6.74575C66.9711 7.83395 67.2487 8.67786 67.8039 9.27748C68.3591 9.8771 69.1281 10.1741 70.1108 10.1686ZM67.2792 3.69767C67.9621 2.95924 68.9115 2.59003 70.1274 2.59003C71.3433 2.59003 72.2927 2.95924 72.9756 3.69767C73.6585 4.43054 74 5.44101 74 6.72909C74 8.01717 73.6558 9.01931 72.9673 9.73553C72.2789 10.4517 71.3295 10.8098 70.1191 10.8098C68.9088 10.8098 67.9621 10.4517 67.2792 9.73553C66.5963 9.01931 66.2549 8.01717 66.2549 6.72909C66.2549 5.44101 66.5963 4.43054 67.2792 3.69767Z" fill="black"/>
<path d="M21.6069 4.87237L24.5192 10.2028H27.0923L21.6119 0.18988L16.1065 10.2028L18.6348 10.1978L21.6069 4.87237Z" fill="black"/>
<path d="M5.27506 9.25439e-06C2.36654 -0.00541842 9.14972e-06 2.37733 9.14972e-06 5.32456C-0.00535713 8.26635 2.35044 10.66 5.26433 10.66C8.17286 10.6654 10.5394 8.28264 10.5394 5.33541C10.5394 2.39361 8.18359 0.00543693 5.27506 9.25439e-06ZM5.26433 8.17408C3.71348 8.17408 2.45776 6.89858 2.45776 5.32998C2.46313 3.76139 3.71884 2.49131 5.2697 2.49131C6.82055 2.49131 8.07626 3.76681 8.07626 5.33541C8.07626 6.90401 6.81519 8.17408 5.26433 8.17408Z" fill="black"/>
<path d="M13.6745 7.87812L13.6845 0.279824H11.3856L11.414 7.47964L11.3762 10.2016H15.1356L16.4521 7.87812H13.6745Z" fill="black"/>
</svg>
