<svg width="61" height="12" viewBox="0 0 61 12" fill="none" xmlns="http://www.w3.org/2000/svg">
<path fill-rule="evenodd" clip-rule="evenodd" d="M5.51312 0.500009C2.55343 0.494486 0.145273 2.91915 0.145273 5.91822C0.139812 8.91177 2.53705 11.3475 5.5022 11.3475C8.46188 11.353 10.87 8.92833 10.87 5.92926C10.87 2.93572 8.4728 0.505533 5.51312 0.500009ZM5.5022 8.81787C3.92406 8.81787 2.64626 7.51993 2.64626 5.92374C2.65172 4.32755 3.92952 3.03514 5.50766 3.03514C7.08579 3.03514 8.36359 4.33307 8.36359 5.92926C8.36359 7.52545 7.08033 8.81787 5.5022 8.81787ZM22.1322 5.45808L25.0957 10.8823H27.7142L22.1373 0.69322L16.5351 10.8823L19.1079 10.8771L22.1322 5.45808ZM14.0704 0.784746L14.0603 8.5167H16.8868L15.5471 10.8811H11.7215L11.76 8.11121L11.7311 0.784746H14.0704ZM37.3307 2.11464C36.4089 1.60716 35.3205 1.34715 34.059 1.34183C33.3363 1.3419 32.7694 1.52331 32.3405 1.86916C31.9184 2.21379 31.7135 2.64092 31.7135 3.16405C31.7135 3.69194 31.8936 4.08213 32.2427 4.36139C32.6143 4.65864 33.4223 5.02533 34.703 5.45584C35.9906 5.88684 36.908 6.32962 37.4239 6.79396C37.9539 7.27093 38.2152 7.90192 38.2152 8.66674C38.2152 9.60739 37.894 10.324 37.2228 10.7674C36.5853 11.1867 35.7785 11.3885 34.8168 11.3885C33.0172 11.3885 31.5784 10.7925 30.5251 9.58794L30.3998 9.44463L30.9197 8.94267L31.0582 9.09719C31.9932 10.14 33.2393 10.6633 34.8168 10.6581C35.7474 10.6581 36.4088 10.4784 36.8339 10.1517C37.2491 9.83267 37.4688 9.35019 37.4688 8.66674C37.4688 8.06544 37.2727 7.62438 36.897 7.31442L36.8949 7.31267C36.4997 6.97752 35.8223 6.63811 34.8406 6.302L34.8394 6.30157C33.857 5.95801 33.1825 5.70896 32.8212 5.55569L32.8178 5.55422C32.4569 5.39319 32.1202 5.20129 31.8082 4.97841L31.8068 4.97741C31.4897 4.74683 31.26 4.48037 31.135 4.1742L31.1337 4.17093C31.0199 3.87735 30.9671 3.52052 30.9671 3.10765C30.9671 2.37537 31.2587 1.76762 31.8309 1.30048C32.407 0.834957 33.1571 0.611511 34.0602 0.611511C35.431 0.616996 36.6364 0.905096 37.6697 1.48289L37.8383 1.57716L37.5109 2.21387L37.3307 2.11464ZM40.0338 11.2434H46.5407V10.5131H43.9545V0.780701H43.4515L43.4052 0.807227C42.4391 1.36155 41.3491 1.80114 40.1339 2.12484L39.9356 2.17766L40.1275 2.83002L40.3117 2.78673C41.3 2.55449 42.2655 2.22585 43.2081 1.80102V10.5131H40.0338V11.2434ZM59.2749 11.2434H60.2332L56.2266 5.84829L60.0776 0.780701H59.1322L55.7849 5.17782L55.7801 5.1847C55.7551 5.22059 55.7315 5.25506 55.7094 5.28802C55.684 5.25272 55.6566 5.21572 55.628 5.17792L52.2809 0.780701H51.3355L55.1864 5.84817L51.1713 11.2434H52.122L55.6998 6.36107C55.7252 6.39589 55.7532 6.43353 55.7838 6.47393L55.7848 6.47525L59.2749 11.2434Z" fill="black"/>
</svg>
