<svg width="16" height="16" viewBox="0 0 16 16" fill="none" xmlns="http://www.w3.org/2000/svg">
<path d="M7.43358 2.3734L7.43857 2.37858L7.44365 2.38366L13.4437 8.38366L13.45 8.38999L13.4565 8.39616C13.5307 8.46693 13.5774 8.56132 13.589 8.66258C13.5775 8.77355 13.5284 8.87764 13.4494 8.95727C13.4492 8.95741 13.4491 8.95756 13.449 8.95771L8.79207 13.6146C8.70682 13.6932 8.59767 13.7407 8.48224 13.7498C8.43467 13.7482 8.38773 13.738 8.34368 13.7198C8.29497 13.6996 8.25078 13.6699 8.21369 13.6324L8.21098 13.6297L2.21098 7.62967L2.21099 7.62966L2.20779 7.6265C2.16871 7.58788 2.13765 7.54191 2.1164 7.49125C2.09525 7.44081 2.08424 7.38671 2.08398 7.33204V2.66932C2.08503 2.55846 2.12953 2.4524 2.20796 2.37397C2.28639 2.29555 2.39244 2.25105 2.50331 2.25H5.08065H7.15737C7.26188 2.25373 7.36096 2.29793 7.43358 2.3734Z" stroke="white" stroke-width="1.5"/>
<path d="M4.8418 5.86719C5.39408 5.86719 5.8418 5.41947 5.8418 4.86719C5.8418 4.3149 5.39408 3.86719 4.8418 3.86719C4.28951 3.86719 3.8418 4.3149 3.8418 4.86719C3.8418 5.41947 4.28951 5.86719 4.8418 5.86719Z" fill="white"/>
</svg>
