<svg width="28" height="28" viewBox="0 0 28 28" fill="none" xmlns="http://www.w3.org/2000/svg">
<path d="M25.2929 14.9601C25.7329 15.7468 26.2662 16.7068 25.9462 17.7335C25.6262 18.7601 24.6262 19.2535 23.8262 19.6401C23.4396 19.8268 22.9462 20.0668 22.8129 20.2535L23.2198 20.5441C23.2156 20.5499 23.2131 20.5528 23.2132 20.5529C23.2133 20.553 23.2157 20.5506 23.2211 20.5459M25.2929 14.9601L23.2211 20.5459M25.2929 14.9601C25.0796 14.5868 24.8129 14.1068 24.8129 13.8801C24.8129 13.6135 25.0662 13.1201 25.2796 12.7201L25.2929 14.9601ZM23.2211 20.5459C23.2158 20.5578 23.2065 20.5804 23.195 20.6174C23.1753 20.6806 23.1558 20.7625 23.1371 20.8617C23.0992 21.0612 23.0712 21.2913 23.0442 21.514L23.0442 21.514L23.0429 21.5244L23.0426 21.527L23.0392 21.5568C22.9377 22.433 22.7922 23.6894 21.7632 24.4424C20.7688 25.1828 19.5611 24.9847 18.7131 24.8456C18.6746 24.8392 18.6367 24.833 18.5997 24.827L18.5901 24.8255L18.5901 24.8254C18.3748 24.7863 18.1439 24.7491 17.9426 24.7294C17.842 24.7196 17.7559 24.7149 17.6873 24.7153C17.6507 24.7156 17.6252 24.7173 17.609 24.719C17.5983 24.7257 17.5817 24.7367 17.5587 24.7539C17.5074 24.7924 17.4447 24.8463 17.3715 24.9149C17.2409 25.0374 17.1019 25.1827 16.9619 25.329C16.9449 25.3467 16.9279 25.3645 16.9109 25.3822L16.8873 25.408C16.3169 26.0295 15.4226 27.0038 14.1392 27.0201L14.1329 27.0202V27.0201H14.1196C12.8759 27.0201 12.0186 26.1261 11.4215 25.5033L11.3989 25.4797C11.3988 25.4797 11.3988 25.4796 11.3987 25.4796C11.2395 25.3137 11.0718 25.1434 10.9168 25.0065C10.8396 24.9382 10.7721 24.8842 10.716 24.8455C10.6715 24.8147 10.6461 24.802 10.6379 24.7981C10.627 24.7962 10.5962 24.7919 10.5388 24.792C10.469 24.7922 10.3819 24.7986 10.2795 24.8113C10.074 24.8368 9.84198 24.8829 9.62332 24.9292L9.61514 24.931L9.61513 24.9309L9.61233 24.9315L9.61201 24.9315C9.58954 24.9359 9.56678 24.9403 9.54373 24.9448C8.70258 25.1087 7.48471 25.3461 6.4817 24.6199C5.42725 23.8719 5.24974 22.568 5.13566 21.7299L5.13131 21.698L5.12676 21.6679L5.12676 21.6679C5.09339 21.4474 5.05933 21.2235 5.01875 21.0329C4.99855 20.9381 4.9787 20.8611 4.95969 20.8032C4.95055 20.7753 4.9434 20.7575 4.93909 20.7475C4.9305 20.74 4.9144 20.7266 4.88768 20.7078C4.83525 20.6708 4.7641 20.6277 4.67462 20.5788C4.54677 20.5089 4.40909 20.4413 4.26472 20.3705C4.20315 20.3403 4.14036 20.3095 4.0766 20.2777L4.0485 20.2647C3.24888 19.8969 2.09295 19.3651 1.68587 18.1602C1.28601 16.9766 1.84733 15.891 2.24998 15.1122C2.26038 15.0921 2.27068 15.0722 2.28085 15.0525L2.28859 15.0375L2.29168 15.0315L2.29172 15.0315C2.3984 14.8315 2.50656 14.6238 2.58782 14.4372C2.62828 14.3442 2.65846 14.2647 2.67786 14.2002C2.69168 14.1543 2.69671 14.1267 2.69854 14.1143C2.69653 14.1056 2.69187 14.0871 2.68155 14.057C2.66189 13.9996 2.63079 13.9259 2.58857 13.8377C2.50401 13.661 2.39242 13.4621 2.28545 13.2749L2.28317 13.2709L2.28319 13.2709C2.27426 13.2549 2.26522 13.2388 2.25608 13.2225C1.83684 12.4738 1.20314 11.3423 1.58888 10.1047C1.97734 8.85839 3.16971 8.2825 3.93273 7.91397C3.94481 7.90814 3.95679 7.90236 3.96865 7.89662L3.96886 7.89652C4.16499 7.80184 4.36914 7.7026 4.53816 7.60601C4.62244 7.55785 4.68811 7.51588 4.73451 7.48122C4.75634 7.46491 4.76874 7.45401 4.77455 7.44867C4.77835 7.44076 4.78936 7.41689 4.80414 7.36951C4.82383 7.30636 4.84329 7.22438 4.86208 7.12522C4.89989 6.92568 4.92798 6.6956 4.95496 6.47296L4.95496 6.47295L4.95623 6.46254C4.95747 6.45179 4.95873 6.44098 4.95999 6.43011C5.06143 5.55387 5.2069 4.29745 6.23597 3.54451C7.26033 2.78183 8.50486 3.00175 9.36858 3.15438C9.38129 3.15663 9.39392 3.15886 9.40646 3.16107L9.40901 3.16152L9.40901 3.16153C9.63012 3.20173 9.85962 3.24176 10.0602 3.26288C10.1602 3.2734 10.2434 3.27814 10.3084 3.27726C10.3473 3.27673 10.3708 3.27423 10.3824 3.27266C10.392 3.267 10.411 3.25509 10.4404 3.23305C10.4917 3.19454 10.5545 3.14059 10.6276 3.07203C10.7583 2.94951 10.8973 2.8042 11.0373 2.65789C11.0543 2.64016 11.0712 2.62242 11.0882 2.6047C11.096 2.59619 11.1039 2.58761 11.1118 2.57896C11.6823 1.95747 12.5766 0.983081 13.8599 0.966837L13.8662 0.966757V0.966797H13.8929C15.1366 0.966797 15.9939 1.86087 16.591 2.48361L16.6136 2.5072C16.6136 2.50725 16.6137 2.5073 16.6137 2.50735C16.7729 2.67318 16.9407 2.84352 17.0956 2.98042C17.1729 3.04871 17.2404 3.10272 17.2964 3.14143C17.3449 3.17492 17.3707 3.18699 17.3763 3.18963C17.3817 3.19048 17.4087 3.19505 17.4662 3.19492C17.5339 3.19477 17.6202 3.18836 17.723 3.1756C17.9294 3.14999 18.1651 3.10379 18.3921 3.05707L18.3977 3.05592L18.3977 3.05595L18.4005 3.05541C18.4229 3.05105 18.4457 3.04661 18.4687 3.04212C19.3099 2.8782 20.5278 2.64086 21.5308 3.36706C22.5852 4.11505 22.7627 5.41898 22.8768 6.257L22.8812 6.28894L22.8857 6.31905L22.8857 6.31908C22.9191 6.53951 22.9531 6.76343 22.9937 6.95401C23.0139 7.04887 23.0338 7.12586 23.0528 7.18378C23.0622 7.21256 23.0695 7.23062 23.0738 7.24043C23.0825 7.24827 23.0995 7.26281 23.1286 7.28372C23.1812 7.32164 23.2524 7.36568 23.3407 7.41472C23.5176 7.51298 23.7281 7.61235 23.9298 7.70645C23.9302 7.70665 23.9306 7.70684 23.931 7.70704L23.964 7.72219C24.7636 8.09005 25.9195 8.62181 26.3266 9.82676C26.7265 11.0104 26.1651 12.096 25.7625 12.8747C25.7521 12.8948 25.7418 12.9148 25.7316 12.9345L25.7239 12.9494L25.7208 12.9554L25.7207 12.9554C25.6141 13.1554 25.5059 13.3632 25.4247 13.5498C25.3842 13.6427 25.354 13.7222 25.3346 13.7867C25.3208 13.8326 25.3158 13.8602 25.3139 13.8726C25.3159 13.8813 25.3206 13.8998 25.3309 13.93C25.3506 13.9874 25.3817 14.0611 25.4239 14.1493C25.5085 14.3259 25.6201 14.5249 25.727 14.7121L25.7293 14.716L25.7293 14.7161C25.7382 14.732 25.7472 14.7481 25.7564 14.7645C26.1756 15.5131 26.8093 16.6446 26.4236 17.8822C26.0351 19.1285 24.8427 19.7044 24.0797 20.073L24.0438 20.0903L24.0436 20.0904C23.8477 20.185 23.6426 20.2846 23.471 20.3819C23.3854 20.4303 23.3171 20.4732 23.2672 20.5095C23.2436 20.5267 23.229 20.5389 23.2211 20.5459Z" fill="url(#paint0_linear_35467_109844)" stroke="url(#paint1_linear_35467_109844)"/>
<path d="M12.7734 18.493L19.6401 11.613L19.7068 11.533L18.3068 10.1196L12.7734 15.6796L10.5201 13.4263L9.12012 14.8263L12.6935 18.4263L12.7734 18.493Z" fill="white"/>
<defs>
<linearGradient id="paint0_linear_35467_109844" x1="18" y1="-18.6667" x2="8.66667" y2="25.3333" gradientUnits="userSpaceOnUse">
<stop stop-color="#16AA51" stop-opacity="0"/>
<stop offset="0.729986" stop-color="#00913A"/>
<stop offset="0.878731" stop-color="#16AA51"/>
<stop offset="1" stop-color="#3CCB75"/>
</linearGradient>
<linearGradient id="paint1_linear_35467_109844" x1="14.0062" y1="1.4668" x2="14.0062" y2="26.5201" gradientUnits="userSpaceOnUse">
<stop stop-color="white"/>
<stop offset="1" stop-color="#00953C"/>
</linearGradient>
</defs>
</svg>
