<svg width="24" height="24" viewBox="0 0 24 24" fill="none" xmlns="http://www.w3.org/2000/svg">
<path d="M19 4.24007H14.6L14.54 4.07007C14.3473 3.53918 13.9958 3.08049 13.5333 2.75634C13.0708 2.43219 12.5198 2.2583 11.955 2.2583C11.3902 2.2583 10.8391 2.43219 10.3766 2.75634C9.91414 3.08049 9.56266 3.53918 9.36998 4.07007L9.30998 4.24007H4.99998C4.77016 4.24138 4.54286 4.28794 4.33104 4.3771C4.11922 4.46626 3.92704 4.59627 3.76546 4.7597C3.60389 4.92313 3.47609 5.11679 3.38935 5.32961C3.30262 5.54243 3.25866 5.77026 3.25998 6.00007V20.0001C3.26413 20.4153 3.41496 20.8157 3.68579 21.1304C3.95663 21.4452 4.33003 21.654 4.73998 21.7201V5.72007H11C10.8236 5.5117 10.7185 5.25242 10.7 4.98007C10.7 4.64855 10.8317 4.33061 11.0661 4.09619C11.3005 3.86177 11.6185 3.73007 11.95 3.73007C12.2815 3.73007 12.5994 3.86177 12.8339 4.09619C13.0683 4.33061 13.2 4.64855 13.2 4.98007C13.1907 5.25218 13.0963 5.51451 12.93 5.73007H19.2V20.2301H6.54998L5.73998 21.7301H19C19.4581 21.7249 19.8962 21.5413 20.2211 21.2183C20.5461 20.8952 20.7322 20.4582 20.74 20.0001V18.5401V6.00007C20.7426 5.76989 20.6996 5.54148 20.6133 5.32806C20.5271 5.11464 20.3993 4.92045 20.2375 4.75676C20.0756 4.59306 19.8829 4.4631 19.6705 4.37441C19.4581 4.28572 19.2302 4.24006 19 4.24007Z" fill="black"/>
<path d="M10.06 14.8102L7.74001 12.4802L6.95001 13.9502L10.06 17.0702L17.05 10.0602L15.92 8.93018L10.06 14.8102Z" fill="black"/>
</svg>
