<svg width="24" height="22" viewBox="0 0 24 22" fill="none" xmlns="http://www.w3.org/2000/svg">
<path fill-rule="evenodd" clip-rule="evenodd" d="M14.557 18.746C10.8808 18.8975 7.19431 18.722 3.54236 18.2197C2.20271 18.0359 1.13262 17.0066 0.903898 15.6711V15.6384C0.18506 11.5133 0.18506 7.29417 0.899813 3.16902V3.13635C1.1367 1.80078 2.20271 0.771533 3.54236 0.587739C9.15419 -0.184194 14.8477 -0.184194 20.4595 0.587739C21.7992 0.771533 22.8693 1.80078 23.098 3.13635V3.16902C23.4574 5.23115 23.6371 7.31676 23.6376 9.40237C23.6382 9.43054 23.6385 9.45871 23.6385 9.48688C23.6344 13.0443 23.4792 16.6058 23.1729 20.1551C23.0545 21.5478 21.4289 22.2544 20.3302 21.3845L17.6223 19.2443C17.2139 18.9216 16.7075 18.746 16.1888 18.746H14.557ZM5.34233 5.81524C5.34233 5.62747 5.49456 5.47524 5.68233 5.47524H18.3203C18.5081 5.47524 18.6603 5.62747 18.6603 5.81524C18.6603 6.00302 18.5081 6.15524 18.3203 6.15524H5.68233C5.49456 6.15524 5.34233 6.00302 5.34233 5.81524ZM5.34238 9.40421C5.34238 9.21643 5.49461 9.06421 5.68238 9.06421H18.3204C18.5081 9.06421 18.6604 9.21643 18.6604 9.40421C18.6604 9.59199 18.5081 9.74421 18.3204 9.74421H5.68238C5.49461 9.74421 5.34238 9.59199 5.34238 9.40421ZM5.68238 12.6533C5.49461 12.6533 5.34238 12.8055 5.34238 12.9933C5.34238 13.181 5.49461 13.3333 5.68238 13.3333H11.6624C11.8502 13.3333 12.0024 13.181 12.0024 12.9933C12.0024 12.8055 11.8502 12.6533 11.6624 12.6533H5.68238Z" fill="#41515C"/>
</svg>
