<svg width="20" height="20" viewBox="0 0 20 20" fill="none" xmlns="http://www.w3.org/2000/svg">
<path fill-rule="evenodd" clip-rule="evenodd" d="M4.75 9.05592C4.75 6.53971 6.78968 4.5 9.30565 4.5C11.8216 4.5 13.8613 6.53971 13.8613 9.05592C13.8613 10.2722 13.3847 11.3771 12.6082 12.1942C12.5781 12.218 12.5492 12.2437 12.5214 12.2715C12.4936 12.2993 12.4678 12.3283 12.444 12.3584C11.6269 13.1351 10.522 13.6118 9.30565 13.6118C6.78968 13.6118 4.75 11.5721 4.75 9.05592ZM13.1804 14.3447C12.0949 15.1413 10.7552 15.6118 9.30565 15.6118C5.68502 15.6118 2.75 12.6766 2.75 9.05592C2.75 5.43523 5.68502 2.5 9.30565 2.5C12.9263 2.5 15.8613 5.43523 15.8613 9.05592C15.8613 10.5054 15.3909 11.845 14.5945 12.9304L16.9565 15.2926C17.347 15.6831 17.347 16.3163 16.9565 16.7068C16.566 17.0973 15.9328 17.0973 15.5423 16.7067L13.1804 14.3447Z" fill="#274962"/>
<path d="M12.6082 12.1942L12.7324 12.3509C12.7398 12.3451 12.7467 12.3387 12.7531 12.3319L12.6082 12.1942ZM12.5214 12.2715L12.38 12.1301L12.5214 12.2715ZM12.444 12.3584L12.5818 12.5033C12.5886 12.4969 12.5949 12.4899 12.6007 12.4826L12.444 12.3584ZM13.1804 14.3447L13.3218 14.2033C13.252 14.1335 13.1416 14.125 13.062 14.1835L13.1804 14.3447ZM14.5945 12.9304L14.4332 12.8121C14.3748 12.8917 14.3833 13.002 14.4531 13.0718L14.5945 12.9304ZM16.9565 15.2926L16.8151 15.434L16.8151 15.434L16.9565 15.2926ZM16.9565 16.7068L16.8151 16.5653L16.8151 16.5653L16.9565 16.7068ZM15.5423 16.7067L15.6837 16.5653L15.5423 16.7067ZM9.30565 4.3C6.67921 4.3 4.55 6.42926 4.55 9.05592H4.95C4.95 6.65016 6.90015 4.7 9.30565 4.7V4.3ZM14.0613 9.05592C14.0613 6.42926 11.9321 4.3 9.30565 4.3V4.7C11.7112 4.7 13.6613 6.65016 13.6613 9.05592H14.0613ZM12.7531 12.3319C13.5636 11.4792 14.0613 10.3255 14.0613 9.05592H13.6613C13.6613 10.2189 13.2059 11.275 12.4632 12.0564L12.7531 12.3319ZM12.6628 12.4129C12.6852 12.3906 12.7084 12.3699 12.7324 12.3509L12.4839 12.0374C12.4479 12.066 12.4132 12.0969 12.38 12.1301L12.6628 12.4129ZM12.6007 12.4826C12.6198 12.4585 12.6405 12.4353 12.6628 12.4129L12.38 12.1301C12.3468 12.1633 12.3158 12.1981 12.2872 12.2341L12.6007 12.4826ZM9.30565 13.8118C10.5753 13.8118 11.7291 13.314 12.5818 12.5033L12.3062 12.2134C11.5248 12.9563 10.4686 13.4118 9.30565 13.4118V13.8118ZM4.55 9.05592C4.55 11.6826 6.67921 13.8118 9.30565 13.8118V13.4118C6.90015 13.4118 4.95 11.4617 4.95 9.05592H4.55ZM13.062 14.1835C12.0098 14.9558 10.7113 15.4118 9.30565 15.4118V15.8118C10.7992 15.8118 12.1801 15.3269 13.2987 14.5059L13.062 14.1835ZM9.30565 15.4118C5.79549 15.4118 2.95 12.5662 2.95 9.05592H2.55C2.55 12.7871 5.57455 15.8118 9.30565 15.8118V15.4118ZM2.95 9.05592C2.95 5.54568 5.79549 2.7 9.30565 2.7V2.3C5.57455 2.3 2.55 5.32478 2.55 9.05592H2.95ZM9.30565 2.7C12.8158 2.7 15.6613 5.54568 15.6613 9.05592H16.0613C16.0613 5.32478 13.0367 2.3 9.30565 2.3V2.7ZM15.6613 9.05592C15.6613 10.4614 15.2054 11.7598 14.4332 12.8121L14.7557 13.0487C15.5765 11.9302 16.0613 10.5494 16.0613 9.05592H15.6613ZM14.4531 13.0718L16.8151 15.434L17.098 15.1511L14.7359 12.789L14.4531 13.0718ZM16.8151 15.434C17.1275 15.7464 17.1275 16.2529 16.8151 16.5653L17.0979 16.8482C17.5666 16.3796 17.5666 15.6198 17.0979 15.1511L16.8151 15.434ZM16.8151 16.5653C16.5026 16.8778 15.9961 16.8777 15.6837 16.5653L15.4009 16.8482C15.8695 17.3168 16.6293 17.3168 17.0979 16.8482L16.8151 16.5653ZM15.6837 16.5653L13.3218 14.2033L13.0389 14.4861L15.4009 16.8482L15.6837 16.5653Z" fill="#EDF1F3"/>
</svg>
