<svg width="53" height="20" viewBox="0 0 53 20" fill="none" xmlns="http://www.w3.org/2000/svg">
<path d="M42.9086 9.91419L47.9309 19.3186H52.8705L42.9086 0.689815L32.9468 19.3186H37.8863L42.9086 9.91419Z" fill="black"/>
<path d="M26.5603 14.955L26.5741 0.661411H22.2141V19.3179H30.6168L32.9486 14.955H26.5603Z" fill="black"/>
<path d="M9.97563 9.5961e-06C8.00478 -0.00273057 6.07741 0.581429 4.43738 1.67858C2.79735 2.77572 1.51837 4.33655 0.76227 6.16357C0.00616616 7.99058 -0.193081 10.0017 0.189739 11.9424C0.572559 13.8831 1.52024 15.6663 2.91288 17.0662C4.30551 18.4661 6.08051 19.4199 8.0133 19.8068C9.94608 20.1938 11.9498 19.9966 13.7709 19.2401C15.592 18.4837 17.1486 17.2019 18.2438 15.5571C19.3391 13.9124 19.9237 11.9784 19.9237 10C19.9237 7.35024 18.876 4.8088 17.0108 2.93383C15.1456 1.05887 12.6153 0.00367963 9.97563 9.5961e-06ZM9.97563 15.3878C8.91351 15.3906 7.87445 15.0769 6.99 14.4865C6.10555 13.8962 5.41547 13.0557 5.00712 12.0714C4.59877 11.0872 4.49051 10.0035 4.69604 8.95741C4.90158 7.91137 5.41166 6.95006 6.16174 6.19517C6.91181 5.44029 7.86813 4.92577 8.90965 4.71676C9.95117 4.50774 11.031 4.61363 12.0126 5.02101C12.9941 5.42839 13.8332 6.11895 14.4236 7.00527C15.0139 7.89158 15.3291 8.93381 15.3291 10C15.3254 11.4302 14.7569 12.8006 13.7481 13.8106C12.7394 14.8206 11.3728 15.3878 9.94804 15.3878H9.97563Z" fill="black"/>
</svg>
